<?xml version="1.0" encoding="iso-8859-1"?>
<!-- Generator: Adobe Illustrator 19.0.0, SVG Export Plug-In . SVG Version: 6.00 Build 0)  -->
<svg version="1.1" id="Layer_1" xmlns="http://www.w3.org/2000/svg" xmlns:xlink="http://www.w3.org/1999/xlink" x="0px" y="0px"
	 viewBox="0 0 512 512" style="enable-background:new 0 0 512 512;" xml:space="preserve">
<circle style="fill:#00A8E1;" cx="317.965" cy="313.003" r="194.035"/>
<path style="opacity:0.2;enable-background:new    ;" d="M309.696,506.851c2.743,0.115,5.497,0.187,8.269,0.187
	c2.772,0,5.526-0.072,8.269-0.187v-77.008h-16.537V506.851z M175.045,181.776l54.453,54.456l11.694-11.694l-54.453-54.455
	C182.678,173.813,178.776,177.714,175.045,181.776z M201.124,304.734h-77.008c-0.115,2.743-0.187,5.497-0.187,8.27
	c0,2.772,0.072,5.524,0.187,8.267h77.008V304.734z M175.043,444.229c3.732,4.063,7.634,7.964,11.694,11.694l54.455-54.453
	l-11.694-11.695L175.043,444.229z M460.884,181.776c-3.731-4.062-7.632-7.963-11.694-11.693l-54.454,54.455l11.695,11.694
	L460.884,181.776z M511.813,304.734l-77.008-0.002v16.537l77.008,0.002c0.115-2.743,0.187-5.496,0.187-8.267
	S511.928,307.477,511.813,304.734z M309.696,119.155v77.007h16.537v-77.007c-2.743-0.115-5.497-0.187-8.269-0.187
	C315.194,118.968,312.439,119.041,309.696,119.155z M394.736,401.468l54.456,54.454c4.061-3.732,7.963-7.634,11.694-11.694
	l-54.456-54.456L394.736,401.468z"/>
<circle style="fill:#333E48;" cx="317.965" cy="313.003" r="139.926"/>
<path style="fill:#FFFFFF;" d="M320.529,195.971c7.818,0,14.026,6.196,14.026,14.02v3.772c14.557,2.16,27.507,6.473,39.103,12.949
	c5.121,2.967,9.702,8.082,9.702,16.178c0,10.247-8.089,18.065-18.34,18.065c-3.237,0-6.466-0.805-9.436-2.429
	c-7.548-4.041-15.097-7.274-22.38-9.16v40.986c40.987,11.055,58.517,27.779,58.517,57.975c0,30.199-23.193,49.618-57.167,53.396
	v14.289c0,7.823-6.208,14.025-14.026,14.025c-7.821,0-14.022-6.201-14.022-14.025v-14.559c-19.146-2.429-37.218-9.167-53.125-18.875
	c-5.666-3.51-9.174-8.901-9.174-16.179c0-10.519,8.092-18.344,18.611-18.344c3.51,0,7.285,1.354,10.52,3.511
	c11.326,7.279,22.117,12.403,34.518,15.101v-42.876c-38.837-10.519-57.982-25.349-57.982-57.439c0-29.664,22.653-49.62,56.632-53.13
	v-3.228C306.508,202.167,312.709,195.971,320.529,195.971z M307.857,283.336v-36.404c-12.947,1.889-18.609,8.361-18.609,16.987
	C289.248,272.279,293.022,277.944,307.857,283.336z M333.203,330.533v37.478c12.67-1.883,19.148-7.823,19.148-17.525
	C352.352,341.585,347.762,335.653,333.203,330.533z"/>
<circle style="fill:#FF9E16;" cx="194.035" cy="198.997" r="194.035"/>
<path style="opacity:0.2;enable-background:new    ;" d="M51.116,67.769l54.453,54.456l11.694-11.694L62.811,56.075
	C58.749,59.806,54.847,63.708,51.116,67.769z M185.767,392.845c2.743,0.115,5.497,0.187,8.269,0.187
	c2.772,0,5.526-0.072,8.269-0.187v-77.009h-16.537V392.845z M51.114,330.221c3.732,4.063,7.634,7.964,11.694,11.694l54.456-54.454
	l-11.694-11.694L51.114,330.221z M77.195,190.727H0.187C0.072,193.47,0,196.224,0,198.997c0,2.772,0.072,5.525,0.187,8.267h77.008
	V190.727z M185.767,5.149v77.007h16.537V5.149c-2.743-0.115-5.497-0.187-8.269-0.187C191.264,4.961,188.51,5.033,185.767,5.149z
	 M387.883,190.727l-77.008-0.002v16.537l77.008,0.002c0.115-2.743,0.187-5.496,0.187-8.267
	C388.071,196.224,387.999,193.47,387.883,190.727z M336.955,67.769c-3.731-4.06-7.632-7.963-11.694-11.693l-54.454,54.455
	l11.694,11.694L336.955,67.769z M270.807,287.461l54.454,54.456c4.062-3.732,7.963-7.634,11.694-11.695l-54.454-54.454
	L270.807,287.461z"/>
<circle style="fill:#333E48;" cx="194.035" cy="198.997" r="139.926"/>
<path style="fill:#FFFFFF;" d="M196.6,81.965c7.818,0,14.026,6.196,14.026,14.02v3.772c14.557,2.16,27.507,6.473,39.103,12.949
	c5.121,2.967,9.702,8.082,9.702,16.178c0,10.247-8.089,18.065-18.34,18.065c-3.237,0-6.466-0.805-9.436-2.429
	c-7.548-4.041-15.097-7.274-22.38-9.16v40.986c40.987,11.055,58.517,27.779,58.517,57.975c0,30.2-23.193,49.618-57.167,53.396
	v14.289c0,7.823-6.208,14.025-14.026,14.025c-7.821,0-14.022-6.201-14.022-14.025v-14.559c-19.146-2.429-37.218-9.167-53.125-18.875
	c-5.666-3.51-9.174-8.901-9.174-16.179c0-10.519,8.092-18.344,18.611-18.344c3.51,0,7.285,1.354,10.52,3.511
	c11.326,7.279,22.116,12.403,34.518,15.101v-42.876c-38.837-10.519-57.982-25.349-57.982-57.439c0-29.664,22.653-49.62,56.632-53.13
	v-3.228C182.577,88.16,188.779,81.965,196.6,81.965z M183.928,169.329v-36.404c-12.947,1.889-18.609,8.361-18.609,16.987
	C165.319,158.272,169.093,163.937,183.928,169.329z M209.274,216.525v37.478c12.67-1.883,19.148-7.823,19.148-17.525
	C228.423,227.578,223.832,221.646,209.274,216.525z"/>
<g>
</g>
<g>
</g>
<g>
</g>
<g>
</g>
<g>
</g>
<g>
</g>
<g>
</g>
<g>
</g>
<g>
</g>
<g>
</g>
<g>
</g>
<g>
</g>
<g>
</g>
<g>
</g>
<g>
</g>
</svg>
