<?xml version="1.0" encoding="utf-8"?>
<!-- Generator: Adobe Illustrator 16.0.0, SVG Export Plug-In . SVG Version: 6.00 Build 0)  -->
<!DOCTYPE svg PUBLIC "-//W3C//DTD SVG 1.1//EN" "http://www.w3.org/Graphics/SVG/1.1/DTD/svg11.dtd" [
	<!ENTITY ns_extend "http://ns.adobe.com/Extensibility/1.0/">
	<!ENTITY ns_ai "http://ns.adobe.com/AdobeIllustrator/10.0/">
	<!ENTITY ns_graphs "http://ns.adobe.com/Graphs/1.0/">
	<!ENTITY ns_vars "http://ns.adobe.com/Variables/1.0/">
	<!ENTITY ns_imrep "http://ns.adobe.com/ImageReplacement/1.0/">
	<!ENTITY ns_sfw "http://ns.adobe.com/SaveForWeb/1.0/">
	<!ENTITY ns_custom "http://ns.adobe.com/GenericCustomNamespace/1.0/">
	<!ENTITY ns_adobe_xpath "http://ns.adobe.com/XPath/1.0/">
]>
<svg version="1.1" id="Layer_1" xmlns:x="&ns_extend;" xmlns:i="&ns_ai;" xmlns:graph="&ns_graphs;"
	 xmlns="http://www.w3.org/2000/svg" xmlns:xlink="http://www.w3.org/1999/xlink" x="0px" y="0px" width="300px" height="300px"
	 viewBox="0 0 300 300" enable-background="new 0 0 300 300" xml:space="preserve">
<metadata>
	<sfw  xmlns="&ns_sfw;">
		<slices></slices>
		<sliceSourceBounds  height="16383" width="16383" x="-8042" y="-8041" bottomLeftOrigin="true"></sliceSourceBounds>
	</sfw>
</metadata>
<g opacity="0.1">
	<g>
		<path d="M155.601,0.002c7.308,0,21.323,0.39,39.158,2.752c27.866,3.692,53.115,13.558,71.606,30.952h0.003
			c17.39,18.499,27.251,43.759,30.944,71.626c3.523,26.618,2.656,44.749,2.656,44.749s0.87,18.124-2.656,44.741
			c-3.693,27.863-13.555,53.127-30.944,71.618l-0.003,0.012c-18.491,17.396-43.74,27.257-71.606,30.944
			c-17.826,2.366-31.839,2.762-39.149,2.762c-3.603,0-5.579-0.094-5.579-0.094s-1.973,0.094-5.576,0.094
			c-7.314,0-21.327-0.396-39.153-2.762c-27.86-3.688-53.112-13.549-71.604-30.944l-0.003-0.012
			c-17.389-18.491-27.254-43.755-30.941-71.618c-3.527-26.617-2.659-44.741-2.659-44.741s-0.868-18.131,2.659-44.749
			c3.688-27.867,13.552-53.127,30.941-71.626h0.003C52.191,16.313,77.439,6.45,105.302,2.755
			c17.835-2.363,31.851-2.752,39.162-2.752c3.594,0,5.567,0.092,5.567,0.092S151.998,0.002,155.601,0.002"/>
	</g>
</g>
<path fill="#E67828" d="M297.31,105.333c-3.69-27.867-13.555-53.13-30.944-71.626h-0.003c-18.488-17.394-43.74-27.256-71.604-30.952
	c-26.608-3.528-44.728-2.66-44.728-2.66s-18.123-0.868-44.731,2.66C77.436,6.444,52.191,16.31,33.696,33.707
	C16.304,52.203,6.442,77.463,2.752,105.333c-3.527,26.618-2.656,44.749-2.656,44.749s-0.871,18.124,2.656,44.741
	c3.69,27.863,13.552,53.127,30.944,71.618v0.012c18.495,17.396,43.74,27.257,71.604,30.956c26.609,3.53,44.731,2.656,44.731,2.656
	s18.12,0.874,44.728-2.656c27.863-3.699,53.109-13.561,71.604-30.956l0.003-0.012c17.39-18.491,27.254-43.755,30.944-71.618
	c3.523-26.617,2.656-44.741,2.656-44.741S300.833,131.947,297.31,105.333"/>
<path fill="#FFFFFF" d="M56.834,111.181h21.021c6.481,0,12.256,0.986,17.328,2.957c5.068,1.974,9.348,4.686,12.837,8.141
	c3.485,3.449,6.129,7.513,7.927,12.202c1.794,4.689,2.691,9.773,2.691,15.267c0,5.498-0.988,10.604-2.955,15.33
	c-1.973,4.717-4.74,8.788-8.299,12.2c-3.556,3.421-7.801,6.115-12.731,8.085c-4.928,1.981-10.315,2.958-16.164,2.958H56.831v-77.14
	H56.834z M71.201,124.495v50.514h5.602c4.23,0,8.029-0.634,11.412-1.899c3.377-1.261,6.25-3.049,8.61-5.336
	c2.36-2.292,4.189-4.972,5.491-8.032c1.301-3.065,1.955-6.39,1.955-9.988c0-3.728-0.566-7.129-1.688-10.194
	c-1.128-3.065-2.855-5.721-5.18-7.981c-2.325-2.254-5.253-3.993-8.774-5.232c-3.521-1.231-7.672-1.847-12.462-1.847h-4.966V124.495z
	"/>
<path fill="#FFFFFF" d="M156.676,188.435c-4.863,0-9.295-0.797-13.312-2.389c-4.016-1.604-7.449-3.785-10.301-6.569
	c-2.853-2.779-5.072-6.068-6.661-9.826c-1.58-3.771-2.377-7.798-2.377-12.072c0-4.345,0.83-8.432,2.486-12.226
	c1.653-3.801,3.925-7.103,6.815-9.885c2.891-2.786,6.288-4.992,10.196-6.622c3.91-1.624,8.117-2.44,12.625-2.44
	c4.576,0,8.824,0.739,12.731,2.227c3.907,1.489,7.27,3.567,10.09,6.241c2.817,2.675,5.019,5.833,6.602,9.466
	c1.586,3.632,2.378,7.594,2.378,11.885v5.063h-50.292c0.988,4.359,3.134,7.883,6.446,10.568c3.31,2.674,7.501,4.01,12.573,4.01
	c4.017,0,7.502-0.979,10.46-2.954c2.958-1.977,5.177-4.626,6.654-7.927l11.729,6.766c-2.676,5.001-6.429,9.028-11.254,12.098
	C169.443,186.904,163.574,188.435,156.676,188.435 M156.149,138.971c-4.298,0-8.012,0.951-11.146,2.848
	c-3.13,1.904-5.335,4.407-6.604,7.504h35.084c-1.062-3.392-3.104-5.961-6.13-7.717C164.316,139.856,160.587,138.971,156.149,138.971
	"/>
<polygon fill="#FFFFFF" points="218.163,161.803 202.211,188.335 186.047,188.335 209.61,149.323 186.574,111.176 202.636,111.176 
	218.163,136.86 233.698,111.176 249.862,111.176 226.621,149.323 250.286,188.335 234.228,188.335 "/>
</svg>
